<svg xmlns="http://www.w3.org/2000/svg" width="32" height="32" viewBox="0 0 32 32">
  <defs>
    <linearGradient id="bgGrad32Dark" x1="0%" y1="0%" x2="100%" y2="100%">
      <stop offset="0%" stop-color="#4C0519"/>
      <stop offset="100%" stop-color="#78350F"/>
    </linearGradient>
    <linearGradient id="heartGrad32Dark" x1="50%" y1="0%" x2="50%" y2="100%">
      <stop offset="0%" stop-color="#FB7185"/>
      <stop offset="100%" stop-color="#E11D48"/>
    </linearGradient>
    <linearGradient id="flameGrad32Dark" x1="50%" y1="100%" x2="50%" y2="0%">
      <stop offset="0%" stop-color="#F59E0B"/>
      <stop offset="100%" stop-color="#FDE68A"/>
    </linearGradient>
  </defs>
  <rect width="32" height="32" rx="6" fill="url(#bgGrad32Dark)"/>
  <!-- Heart -->
  <path d="M16 26 C7 19 3 12 6 8 C9 4 13 5 16 10 C19 5 23 4 26 8 C29 12 25 19 16 26Z" fill="url(#heartGrad32Dark)"/>
  <!-- Candle -->
  <rect x="14.5" y="12" width="3" height="8" rx="0.8" fill="#FEF3C7"/>
  <!-- Flame -->
  <ellipse cx="16" cy="9" rx="2" ry="4" fill="url(#flameGrad32Dark)"/>
  <ellipse cx="16" cy="9.5" rx="0.8" ry="2" fill="#FFFBEB" opacity="0.9"/>
  <!-- Sparkles -->
  <circle cx="9" cy="7" r="0.6" fill="#FDE68A" opacity="0.8"/>
  <circle cx="23" cy="7" r="0.6" fill="#FDE68A" opacity="0.8"/>
</svg>
